<svg viewBox="0 0 200 200" xmlns="http://www.w3.org/2000/svg">
    <circle cx="100" cy="100" r="95" fill="#F4A460" stroke="#D2691E" stroke-width="5" />
    <circle cx="100" cy="100" r="80" fill="#FF6347" />
    <circle cx="100" cy="100" r="70" fill="#FFD700" />
    <circle cx="70" cy="80" r="7" fill="#8B0000" />
    <circle cx="130" cy="120" r="7" fill="#8B0000" />
    <circle cx="90" cy="140" r="7" fill="#8B0000" />
    <circle cx="120" cy="70" r="7" fill="#8B0000" />
    <circle cx="150" cy="100" r="5" fill="#FF4500" />
    <circle cx="100" cy="50" r="5" fill="#FF4500" />
    <circle cx="50" cy="100" r="5" fill="#FF4500" />
    <ellipse cx="80" cy="110" rx="4" ry="10" fill="#32CD32" />
    <ellipse cx="120" cy="90" rx="4" ry="10" fill="#32CD32" />
    <ellipse cx="100" cy="130" rx="4" ry="10" fill="#32CD32" />
    <path d="M100,100 L85,30 A95,95 0 0,1 115,30 Z" fill="#FF4500" opacity="0.7" />
    <circle cx="110" cy="110" r="6" fill="#800000" stroke="#550000" stroke-width="1" />
    <circle cx="130" cy="70" r="6" fill="#800000" stroke="#550000" stroke-width="1" />
    <circle cx="70" cy="120" r="6" fill="#800000" stroke="#550000" stroke-width="1" />
    <rect x="90" y="60" width="8" height="15" fill="#32CD32" transform="rotate(30 100 100)" />
    <rect x="120" y="100" width="8" height="15" fill="#32CD32" transform="rotate(-20 100 100)" />
    <rect x="80" y="140" width="8" height="15" fill="#32CD32" transform="rotate(15 100 100)" />
</svg>